<svg version="1.1" viewBox="0 0 282.19 62.93" xmlns="http://www.w3.org/2000/svg" xmlns:xlink="http://www.w3.org/1999/xlink" overflow="hidden"><defs></defs><g id="MPG_Minerva"><path d=" M 311.72 16.18 C 294.345 16.18 280.26 30.2651 280.26 47.64 C 280.26 65.0149 294.345 79.1 311.72 79.1 C 329.095 79.1 343.18 65.0149 343.18 47.64 C 343.158 30.2743 329.086 16.202 311.72 16.18 Z M 311.72 78.18 C 294.831 78.18 281.14 64.4888 281.14 47.6 C 281.14 30.7111 294.831 17.02 311.72 17.02 C 328.609 17.02 342.3 30.7112 342.3 47.6 C 342.3 47.6134 342.3 47.6267 342.3 47.64 C 342.278 64.5197 328.6 78.198 311.72 78.22 Z" fill="#007869" transform="matrix(1,0,0,1,-60.99,-16.18)"/><path d=" M 330.18 45.23 C 329.74 44.32 330.04 43.73 329.91 43.06 C 329.537 41.9614 329.106 40.8832 328.62 39.83 C 328.4 39.3 329.75 39.43 328.75 37.53 C 328.75 37.47 330.14 36.95 328.75 35.88 C 328.045 35.3189 327.44 34.6427 326.96 33.88 C 326.872 33.765 326.872 33.605 326.96 33.49 C 327.573 33.0952 327.75 32.2783 327.355 31.6655 C 327.242 31.4906 327.09 31.3448 326.91 31.24 C 326.29 30.86 325.57 31.24 324.91 31.67 C 324.69 31.81 324.58 31.9 324.35 31.81 C 324.163 31.7048 323.982 31.5879 323.81 31.46 C 324.344 31.0553 324.676 30.4387 324.72 29.77 C 323.716 29.5083 322.652 29.6147 321.72 30.07 L 321.61 30 C 322.043 29.3986 322.137 28.6172 321.86 27.93 L 321.86 27.93 C 322.94 26.4623 324.181 25.1206 325.56 23.93 L 325.56 23.93 C 325.64 23.85 325.67 23.76 325.56 23.67 L 325.24 23.48 C 311.876 16.0683 295.034 20.8937 287.622 34.2578 C 285.346 38.3617 284.151 42.9771 284.15 47.67 C 284.258 56.6669 288.639 65.0761 295.95 70.32 C 296.207 70.5115 296.486 70.6725 296.78 70.8 C 296.887 70.8617 297.023 70.8362 297.1 70.74 L 297.21 70.6 C 297.271 70.5307 297.307 70.4424 297.31 70.35 C 297.31 70.15 297.02 69.97 296.67 69.46 C 295.764 68.1174 295.271 66.5394 295.25 64.92 C 295.23 63.4454 295.709 62.0074 296.61 60.84 C 297.63 62 300 64.07 300 66 C 299.94 68.16 297.92 68.06 298.35 69.68 C 298.63 70.68 299.35 70.28 299.52 71.05 C 299.918 72.2699 301.047 73.1019 302.33 73.12 C 302.52 73.12 302.68 73.25 303.05 73.63 C 303.781 74.0664 304.654 74.1958 305.48 73.99 C 306.04 73.89 306.74 74.4 307.9 74.27 C 309.35 74.11 309.72 74 310.34 73.99 C 313.951 73.9042 317.564 74.0813 321.15 74.52 C 321.85 74.63 322.07 74.32 321.75 73.77 C 320.335 71.541 320.033 68.7827 320.93 66.3 C 323.167 66.6948 325.472 66.2687 327.42 65.1 C 328.374 64.4667 328.946 63.3954 328.94 62.25 C 328.793 61.5942 328.743 60.9204 328.79 60.25 C 329.01 59.43 329.17 59.45 329.4 59.25 C 330.49 58.49 329.7 57.88 329.54 57.82 C 330.001 57.525 330.139 56.9146 329.85 56.45 C 329.65 56.24 329.06 54.58 329.74 54.24 C 330.42 53.9 331.31 53.71 332.16 53.34 C 332.855 53.0418 333.177 52.2363 332.879 51.541 C 332.876 51.5339 332.873 51.527 332.87 51.52 C 332.46 50.45 330.25 45.37 330.18 45.23 Z M 299.65 69.85 C 299.44 69.9 298.76 69.92 298.91 69.03 C 299.01 68.48 299.6 68.25 299.91 68.56 C 299.84 69 299.69 69.41 299.65 69.85 Z M 325.72 32.11 C 326.08 31.88 326.46 31.79 326.72 32.01 C 327.5 32.79 325.87 33.23 326.21 33.82 C 326.791 34.7909 327.547 35.6454 328.44 36.34 C 328.81 36.63 328.87 37.27 327.44 37.56 C 326.01 37.85 320.36 39.35 317.38 42.51 C 313.64 46.51 311.26 51.6 310.94 50.9 C 310.62 50.2 309.86 50.07 309.94 49.9 C 315.33 40.62 323.74 33.35 325.72 32.11 Z M 328.18 38.61 C 327.87 39.49 325.44 40.27 325.55 39.61 C 325.6 39.33 325.55 38.97 325.74 38.93 C 325.93 38.89 326.74 38.62 327.98 38.31 C 328.1 38.32 328.26 38.39 328.18 38.61 Z M 322 40.21 C 321.94 39.85 324.56 38.97 324.65 39.21 C 324.82 39.69 324.11 40.98 323.23 41.31 C 322.35 41.64 321.82 41.56 321.86 41.42 C 321.963 41.0252 322.01 40.6179 322 40.21 Z M 315.91 53.88 C 314.71 54.61 314.06 53.2 313.91 52.96 C 313.717 52.6646 313.659 52.3009 313.75 51.96 C 313.89 51.031 313.85 50.0835 313.63 49.17 C 313.51 48.38 315.15 46.42 315.52 46.07 C 315.89 45.72 316.46 46.25 316.52 46.83 C 316.557 47.7314 316.076 48.5746 315.28 49 C 314.51 49.58 314.36 50.33 314.51 50.53 C 314.66 50.73 314.91 50.61 315.06 50.29 C 315.53 49.29 316.87 48.79 317.06 48.29 C 317.259 47.7542 317.28 47.1687 317.12 46.62 C 317.12 46.32 317.38 46.24 317.6 46.27 C 317.82 46.3 318.01 46.7 318.15 47.08 C 319.02 49.33 316.84 50.69 316.49 51.22 C 316.35 51.47 316.85 53.3 315.91 53.88 Z M 317.73 45.16 C 317.09 45.59 316.15 45 316.34 44.73 C 317.276 43.4292 318.441 42.3107 319.78 41.43 C 320.78 40.79 320.92 40.75 320.97 41.11 C 321.018 41.9336 320.737 42.7426 320.19 43.36 C 319.737 43.8345 319.116 44.1112 318.46 44.13 C 318.22 44.18 318.23 44.82 317.73 45.16 Z M 312 52.83 C 311.7 52.77 311.59 52.19 311.65 51.96 C 311.967 51.2685 312.37 50.62 312.85 50.03 C 312.92 49.94 313.07 50.03 313.08 50.13 C 313.21 51.35 313 53.07 312 52.83 Z M 321.64 30.62 C 322.343 30.298 323.107 30.1341 323.88 30.14 C 324.13 30.14 323.34 31.58 321.88 32.14 C 321.051 32.5603 320.139 32.7924 319.21 32.82 C 319 32.77 320.45 31.14 321.6 30.62 Z M 296.64 54.07 C 296.414 53.7572 296.115 53.5034 295.77 53.33 C 295.227 54.1326 294.866 55.0437 294.71 56 C 293.327 53.4236 292.557 50.5627 292.46 47.64 C 292.05 37.03 300.93 28.49 311.77 28.52 C 314.083 28.5204 316.371 28.9863 318.5 29.89 C 318.035 30.4975 317.664 31.1718 317.4 31.89 C 317.4 31.32 317.23 30.89 317.28 30.51 C 317.33 30.13 315.74 30.78 314.35 32.98 C 314.05 33.478 313.834 34.0219 313.71 34.59 C 313.725 34.0887 313.629 33.5903 313.43 33.13 C 312.268 33.6337 311.352 34.5751 310.88 35.75 C 310.74 36.0728 310.63 36.4074 310.55 36.75 C 310.545 36.3993 310.453 36.0554 310.28 35.75 C 309.095 36.2602 308.165 37.2262 307.7 38.43 C 307.524 38.8687 307.409 39.3298 307.36 39.8 C 307.21 39.11 306.95 38.69 306.86 38.8 C 306.29 39.53 305.17 39.85 304.58 41.68 C 304.449 42.0877 304.379 42.5121 304.37 42.94 C 304.13 42.32 303.78 41.94 303.7 41.94 C 302.666 42.7713 301.929 43.915 301.6 45.2 C 301.498 45.7722 301.498 46.3578 301.6 46.93 C 301.239 46.4882 300.928 46.0088 300.67 45.5 C 299.679 46.3117 299.074 47.5012 299 48.78 C 298.986 49.3974 299.06 50.0136 299.22 50.61 C 298.75 49.74 298.07 49.34 298 49.39 C 297.157 50.2941 296.646 51.4576 296.55 52.69 C 296.498 53.1517 296.528 53.619 296.64 54.07 Z M 318.84 30.19 C 319.483 29.3938 320.34 28.7972 321.31 28.47 C 321.258 29.4486 320.837 30.371 320.13 31.05 C 319.378 31.7972 318.506 32.4125 317.55 32.87 C 317.748 31.8826 318.192 30.9609 318.84 30.19 Z M 316.07 34.1 C 315.39 34.6163 314.819 35.262 314.39 36 C 314.22 36.27 313.82 34.51 314.9 32.82 C 315.398 32.0722 316.062 31.4494 316.84 31 C 316.75 31.4 317.48 33 316.07 34.1 Z M 313.07 36.35 C 312.07 37.86 312 37.35 310.89 38.82 C 310.81 37.8721 310.915 36.9176 311.2 36.01 C 311.566 35.0996 312.192 34.3171 313 33.76 C 313.383 34.5808 313.383 35.5292 313 36.35 Z M 309.75 39.35 C 309.23 40.26 308.75 40.05 307.89 41.35 C 307.79 41.49 307.56 40.28 308.08 38.65 C 308.408 37.7705 309.034 37.0342 309.85 36.57 C 310 36.54 310.34 38.29 309.72 39.37 Z M 306.66 42.55 C 306.305 43.2882 305.797 43.9426 305.17 44.47 C 305.07 44.59 304.6 43.37 305.05 41.83 C 305.35 40.9854 305.902 40.2527 306.63 39.73 C 306.76 39.58 307.19 41.34 306.63 42.57 Z M 304.15 44.55 C 304.151 44.8563 304.1 45.1605 304 45.45 C 303.669 46.37 303.136 47.2039 302.44 47.89 C 302.149 47.3473 301.984 46.7455 301.96 46.13 C 301.977 44.8473 302.545 43.634 303.52 42.8 C 303.72 42.79 304.12 43.74 304.12 44.55 Z M 301.59 48.39 C 301.528 49.6427 300.953 50.8146 300 51.63 C 299.607 50.9346 299.381 50.1575 299.34 49.36 C 299.207 48.2733 299.601 47.1884 300.4 46.44 C 300.6 47 301.57 47.41 301.56 48.39 Z M 297.97 50.27 C 298.785 50.8105 299.25 51.7442 299.19 52.72 C 299.212 53.8231 298.707 54.8706 297.83 55.54 C 297.55 54.45 297.02 54.23 297.03 53.14 C 297.06 52.1172 297.375 51.1232 297.94 50.27 Z M 300.12 54 C 301.041 53.5969 302.051 53.4418 303.05 53.55 C 302.823 54.5758 302.183 55.4623 301.28 56 C 300.383 56.5509 299.321 56.767 298.28 56.61 C 298.456 55.5019 299.135 54.5378 300.12 54 Z M 300 53 C 300.365 51.9256 301.127 51.0313 302.13 50.5 L 302.13 50.5 C 303.009 50.1126 303.974 49.9609 304.93 50.06 C 305.09 50.12 304.42 51.73 303.19 52.32 C 301.96 52.91 301.26 52.61 300 53 Z M 302.06 49.47 C 302.578 48.4651 303.35 47.6135 304.3 47 C 305.138 46.641 306.054 46.5033 306.96 46.6 C 306.68 47.5833 306.007 48.4079 305.1 48.88 C 304.167 49.3622 303.116 49.5702 302.07 49.48 Z M 304.73 45.89 C 305.343 44.8662 306.207 44.016 307.24 43.42 C 308.03 43.0788 308.901 42.9713 309.75 43.11 C 309.473 44.1071 308.765 44.9285 307.82 45.35 C 306.847 45.7601 305.795 45.948 304.74 45.9 Z M 308 42.35 C 308.454 41.3554 309.215 40.532 310.17 40 C 311.04 39.7537 311.96 39.7537 312.83 40 C 313.11 40 312.43 41.35 310.83 41.94 C 309.933 42.3005 308.963 42.441 308 42.35 Z M 311.59 38.94 C 312.186 38.0126 313.018 37.2603 314 36.76 C 314.89 36.4911 315.837 36.4669 316.74 36.69 C 316.9 36.75 315.92 38.21 314.42 38.69 C 313.49 38.9845 312.507 39.0699 311.54 38.94 Z M 315.18 36 C 315.02 35.89 316.45 34.29 317.62 33.84 C 318.412 33.5464 319.261 33.4437 320.1 33.54 C 319.668 34.4514 318.907 35.1658 317.97 35.54 C 317.096 35.9334 316.134 36.092 315.18 36 Z M 295.3 68.72 C 288.83 63.6271 285.019 55.8738 284.94 47.64 C 284.934 32.8553 296.915 20.8652 311.699 20.8592 C 316.033 20.8575 320.302 21.9078 324.14 23.92 C 324.195 23.9566 324.21 24.0311 324.174 24.0863 C 324.165 24.0997 324.153 24.1111 324.14 24.12 C 323.033 25.1722 322.013 26.3127 321.09 27.53 C 318.152 26.1526 314.945 25.4423 311.7 25.45 C 299.449 25.461 289.521 35.3894 289.51 47.64 C 289.457 52.9457 291.358 58.0855 294.85 62.08 C 294.476 62.973 294.286 63.932 294.29 64.9 C 294.289 66.2395 294.637 67.5562 295.3 68.72 Z M 295.3 61.27 L 295.3 61.27 C 292.073 57.4629 290.326 52.6204 290.38 47.63 C 290.391 35.8654 299.925 26.331 311.69 26.32 C 314.751 26.309 317.778 26.9642 320.56 28.24 C 320.118 28.4466 319.705 28.7087 319.33 29.02 C 316.916 27.9894 314.315 27.4685 311.69 27.49 C 300.574 27.5065 291.566 36.5138 291.55 47.63 C 291.478 52.2271 293.057 56.6974 296 60.23 C 295.86 60.49 295.62 60.86 295.34 61.27 Z M 296.36 59.6 C 295.638 58.9507 295.173 58.0634 295.05 57.1 C 295.05 57.04 295.05 56.98 295.05 56.92 C 295.057 55.9748 295.302 55.0466 295.76 54.22 C 295.91 54.08 297.36 55.22 297.38 56.83 C 297.391 57.8402 297.044 58.8217 296.4 59.6 Z M 298.77 57.44 C 299.648 57.0622 300.617 56.9442 301.56 57.1 C 301.216 58.0802 300.563 58.9223 299.7 59.5 C 298.903 59.9541 297.965 60.0933 297.07 59.89 C 297.81 59.13 297.67 58 298.81 57.44 Z M 300.33 71.36 C 300.131 70.6407 300.184 69.875 300.48 69.19 C 301 68.93 301.95 68.84 301.97 69.19 C 301.808 70.2067 301.839 71.2446 302.06 72.25 C 302 72.43 300.71 72.33 300.37 71.36 Z M 300.42 68.05 C 300.32 67.45 300.89 66.88 300.88 65.58 C 300.88 63.99 298.88 61.81 297.57 60.41 C 298.389 60.3895 299.195 60.1916 299.93 59.83 C 301.15 59.199 302.034 58.0668 302.35 56.73 C 301.993 56.6099 301.616 56.5623 301.24 56.59 L 301.46 56.48 C 302.709 55.7807 303.574 54.5521 303.81 53.14 C 303.413 53.0769 303.011 53.0534 302.61 53.07 L 303.2 52.85 C 304.519 52.284 305.471 51.0999 305.74 49.69 C 305.416 49.5915 305.078 49.5475 304.74 49.56 C 304.928 49.4873 305.112 49.4038 305.29 49.31 C 306.516 48.6909 307.403 47.5585 307.71 46.22 C 307.384 46.1355 307.047 46.0985 306.71 46.11 C 307.173 46.0077 307.625 45.8604 308.06 45.67 C 309.314 45.1643 310.26 44.1032 310.62 42.8 C 310.335 42.693 310.034 42.6355 309.73 42.63 C 310.173 42.5263 310.61 42.3995 311.04 42.25 C 312.283 41.8556 313.268 40.9001 313.7 39.67 C 313.43 39.67 313.06 39.52 312.59 39.44 C 313.254 39.3901 313.91 39.2556 314.54 39.04 C 316.68 38.31 317.44 37.04 317.48 36.46 C 317.277 36.3316 317.048 36.2497 316.81 36.22 C 317.284 36.1396 317.749 36.0157 318.2 35.85 C 319.499 35.269 320.531 34.219 321.09 32.91 C 321.489 32.784 321.88 32.6337 322.26 32.46 C 322.458 32.3763 322.649 32.2759 322.83 32.16 C 322.93 32.24 323.09 32.35 323.32 32.5 C 323.55 32.65 323.73 32.74 323.58 32.86 C 318.11 37.7148 313.368 43.3325 309.5 49.54 C 309.43 49.64 309.32 49.62 309.13 49.61 C 306.74 49.45 305.39 52.28 306.46 54.94 C 306.113 55.5697 305.656 56.132 305.11 56.6 C 305.02 56.68 304.8 57.01 305.18 56.97 C 305.74 56.97 306.45 56.03 306.79 55.63 C 306.93 55.81 307.45 56.24 307.2 56.49 C 305.953 57.7243 304.539 58.7779 303 59.62 C 302.24 60 304.26 60.25 307.71 57.13 C 307.91 56.95 308.15 57.85 308.46 58.24 C 307.87 60.19 309.33 63.97 309.1 65.15 C 309.069 65.5993 308.7 65.9507 308.25 65.96 C 304.83 66.03 304.5 65.87 302.76 66.38 C 301.95 66.62 302.16 67.16 302.76 67 C 303.36 66.84 304.13 66.54 307.82 66.77 C 308.73 66.83 309.76 66.59 309.77 65.07 C 309.78 63.55 308.67 59.56 309.05 58.99 C 309.338 59.2194 309.684 59.3648 310.05 59.41 C 310.05 60.75 312.17 65.1 311.2 67.5 C 310.84 68.39 309.27 68.33 306.58 68.06 C 302 67.61 300.55 68.6 300.46 68.05 Z M 311 71 C 310.13 71.3059 309.177 70.8485 308.871 69.9784 C 308.77 69.6932 308.749 69.3862 308.81 69.09 C 308.98 68.82 310.11 69.4 310.98 68.83 C 311.64 68.4 312 70.65 311 71 Z M 302.91 72.31 C 302.66 71.2 302.56 69.31 303.02 68.87 C 303.11 68.78 304.48 68.59 304.46 68.87 C 304.35 70.19 303.82 71.66 304.82 73.12 C 305.18 73.7 303.23 73.78 302.89 72.31 Z M 306.31 73.57 C 305.83 73.45 304.51 71.34 305.59 68.84 C 305.7 68.57 307.35 68.74 307.59 68.84 C 307.83 68.94 307.37 70.89 309.59 71.77 C 309.87 71.84 309.63 74.39 306.29 73.57 Z M 320.47 66.57 C 319.7 69.22 319.32 70.28 320.47 73.15 C 320.62 73.54 320.73 73.82 320.4 73.77 C 318.08 73.37 317.58 72.99 310.32 73.6 C 309.79 73.6 310.49 72.6 310.4 71.87 C 311.302 71.8596 312.092 71.264 312.35 70.4 C 312.62 69.09 311.71 68.13 311.81 67.94 C 312.81 65.94 311.74 63.7 310.87 59.94 C 310.79 59.59 310.99 59.44 311.14 59.6 C 315.81 64.66 318.79 65.66 320.4 66.14 C 320.54 66.21 320.5 66.39 320.45 66.56 Z M 332.41 52.77 C 331.41 53.63 329.94 53.7 329.33 54.25 C 329.01 54.54 328.87 54.99 329.21 55.8 C 329.41 56.27 329.54 56.32 328.87 56.5 C 327.79 56.79 327.64 58.22 326.25 57.96 C 325.7 57.85 326.1 58.21 326.25 58.23 C 326.75 58.3318 327.267 58.1781 327.63 57.82 C 327.931 57.4617 328.293 57.1603 328.7 56.93 C 329.14 56.76 329.59 56.77 329.6 57.1 C 329.61 57.43 329.05 57.75 328.81 57.86 C 329.1 58.01 329.96 58.45 329.22 58.95 C 328.65 59.34 327.85 58.8 327.74 58.73 C 327.63 58.66 327.24 58.73 327.35 58.82 C 327.78 59.34 328.93 59.2 328.72 59.48 C 327.66 60.9 328.52 61.74 328.2 63.17 C 327.88 64.6 325.89 65.42 324.36 65.69 C 319.15 66.63 314.09 62.2 311.13 58.87 C 311.4 58.24 311.36 57.41 311.13 57.7 C 310.9 57.99 310.92 58.44 310.3 58.6 C 309.11 58.9 308.6 56.83 308.23 56.47 C 306.746 55.1865 306.275 53.0839 307.07 51.29 C 307.436 50.3008 308.535 49.796 309.525 50.1624 C 309.92 50.309 310.256 50.5824 310.48 50.94 C 311.38 52.27 310.97 53.03 311.48 53.43 C 311.98 53.7502 312.62 53.7502 313.12 53.43 C 313.66 53.28 313.62 54.73 315.49 54.66 C 317.36 54.59 317.27 51.46 317.56 51.18 C 320.14 48.67 318.82 46.42 318.35 45.9 C 318.23 45.76 318.64 44.83 318.79 44.8 C 320.062 44.5427 321.123 43.6692 321.62 42.47 C 321.62 42.47 324.14 42.47 325.04 40.62 C 325.27 40.14 326.04 41.09 327.7 39.77 C 327.789 39.6648 327.947 39.6519 328.052 39.7413 C 328.089 39.7725 328.116 39.8138 328.13 39.86 C 329.21 42.51 329.67 43.24 329.59 44.59 C 329.53 45.59 332.21 51.02 332.4 51.5 C 332.59 51.98 332.64 52.54 332.39 52.76 Z" fill="#007869" transform="matrix(1,0,0,1,-60.99,-16.18)"/><path d=" M 326.34 43.16 C 324.87 43.21 323.17 45 322.61 45.25 C 322.05 45.5 322.24 45.68 322.61 45.56 C 323.34 45.29 324.38 44.18 325.81 43.66 C 326.95 43.25 326.87 44.18 327.3 44.13 C 327.47 44.11 327.18 43.12 326.34 43.16 Z" fill="#007869" transform="matrix(1,0,0,1,-60.99,-16.18)"/><path d=" M 326.67 44.59 C 326.55 44.59 326.79 45.25 326.16 45.29 C 324.78 45.37 323.69 46.67 322.85 47.07 C 322.494 47.2666 322.109 47.405 321.71 47.48 C 321.6 47.48 321.64 47.66 321.71 47.67 C 325.23 48.14 326.57 48.01 326.6 47.88 C 326.63 47.75 326.41 47.52 326.46 47.37 C 326.602 46.8325 326.602 46.2675 326.46 45.73 C 326.39 45.48 326.98 45.65 326.98 45.32 C 327.05 45.15 326.87 44.54 326.67 44.59 Z M 326.13 47.36 C 326.06 47.64 324.49 47.51 323.64 47.44 C 323.44 47.44 323.1 47.44 323.75 47 C 324.393 46.5401 325.115 46.2012 325.88 46 C 325.999 45.9763 326.115 46.0537 326.139 46.1728 C 326.139 46.1752 326.14 46.1776 326.14 46.18 C 326.223 46.5693 326.22 46.9721 326.13 47.36 Z" fill="#007869" transform="matrix(1,0,0,1,-60.99,-16.18)"/><path d=" M 330.71 52.37 C 330.093 52.5276 329.503 52.7771 328.96 53.11 C 328.72 53.26 327.62 53.94 327.7 52.87 C 327.7 52.49 327.97 51.56 327.97 51.31 C 327.97 51.06 327.65 51.07 327.64 51.31 C 327.606 51.842 327.529 52.3704 327.41 52.89 C 327.306 53.2854 327.543 53.6898 327.938 53.7934 C 328.132 53.8442 328.339 53.8141 328.51 53.71 C 329.185 53.2798 329.915 52.9434 330.68 52.71 C 330.86 52.65 330.9 52.37 330.71 52.37 Z" fill="#007869" transform="matrix(1,0,0,1,-60.99,-16.18)"/><path d=" M 310.37 56.2 C 310.17 56.12 310.22 56.55 309.94 56.51 C 309.66 56.47 309.88 56.11 309.4 55.61 C 309.17 55.35 308.57 55.25 308.12 54.54 C 307.42 53.42 308.03 50.93 309.05 51.28 C 309.62 51.48 309.52 52.81 309.35 53.7 C 309.24 54.25 310.1 54.52 310.18 54.33 C 310.26 54.14 309.86 54.04 309.76 53.74 C 309.6 53.29 310.81 51.47 309.23 50.94 C 308.08 50.56 307.32 52.01 307.46 53.61 C 307.504 54.5583 308.11 55.3886 309 55.72 C 309.7 55.98 309.17 56.93 310.11 56.93 C 310.51 56.94 310.6 56.29 310.37 56.2 Z" fill="#007869" transform="matrix(1,0,0,1,-60.99,-16.18)"/><path d=" M 319.6 26.18 C 319.642 26.21 319.698 26.21 319.74 26.18 L 321.69 23.71 C 321.73 23.6507 321.715 23.5698 321.656 23.5293 C 321.651 23.5258 321.646 23.5227 321.64 23.52 L 321.31 23.39 C 321.269 23.3565 321.211 23.3565 321.17 23.39 L 319.17 25.86 C 319.127 25.9106 319.134 25.9863 319.184 26.0291 C 319.195 26.0381 319.207 26.0452 319.22 26.05 Z" fill="#007869" transform="matrix(1,0,0,1,-60.99,-16.18)"/><path d=" M 316 25.18 L 316.34 25.25 C 316.397 25.2579 316.451 25.2243 316.47 25.17 L 317.62 22.35 C 317.64 22.2784 317.6 22.2038 317.53 22.18 L 317.15 22.1 C 317.126 22.0833 317.094 22.0833 317.07 22.1 C 316.92 22.46 316.13 24.43 315.91 24.97 C 315.86 25.0135 315.855 25.0893 315.898 25.1393 C 315.924 25.1685 315.962 25.1836 316 25.18 Z" fill="#007869" transform="matrix(1,0,0,1,-60.99,-16.18)"/><path d=" M 312 24.78 L 312.34 24.78 C 312.403 24.7802 312.455 24.7323 312.46 24.67 L 312.74 21.67 C 312.751 21.6103 312.712 21.5529 312.652 21.5418 C 312.645 21.5405 312.637 21.5399 312.63 21.54 L 312.28 21.54 C 312.219 21.544 312.169 21.5897 312.16 21.65 L 311.88 24.65 C 311.874 24.716 311.924 24.7741 311.99 24.7796 C 311.993 24.7799 311.997 24.78 312 24.78 Z" fill="#007869" transform="matrix(1,0,0,1,-60.99,-16.18)"/><path d=" M 308.05 25.08 L 308.39 25.08 C 308.458 25.065 308.502 24.9987 308.49 24.93 L 307.92 21.98 C 307.905 21.9161 307.845 21.8733 307.78 21.88 L 307.44 21.93 C 307.372 21.945 307.328 22.0113 307.34 22.08 L 307.91 25.03 C 307.939 25.077 307.997 25.0977 308.05 25.08 Z" fill="#007869" transform="matrix(1,0,0,1,-60.99,-16.18)"/><path d=" M 304.06 26 C 304.087 26.0557 304.152 26.0817 304.21 26.06 L 304.53 25.95 C 304.593 25.9299 304.628 25.8625 304.608 25.7993 C 304.606 25.7926 304.603 25.7862 304.6 25.78 L 303.25 23.06 C 303.22 23.0076 303.158 22.9827 303.1 23 L 302.78 23.12 C 302.717 23.1401 302.682 23.2075 302.702 23.2707 C 302.704 23.2774 302.707 23.2838 302.71 23.29 Z" fill="#007869" transform="matrix(1,0,0,1,-60.99,-16.18)"/><path d=" M 300.33 27.71 C 300.372 27.7494 300.438 27.7494 300.48 27.71 L 300.79 27.54 C 300.842 27.491 300.845 27.4087 300.796 27.3563 C 300.794 27.3541 300.792 27.352 300.79 27.35 L 298.79 25.04 C 298.742 25.0065 298.678 25.0065 298.63 25.04 L 298.33 25.21 C 298.278 25.259 298.275 25.3413 298.324 25.3937 C 298.326 25.3959 298.328 25.398 298.33 25.4 Z" fill="#007869" transform="matrix(1,0,0,1,-60.99,-16.18)"/><path d=" M 296.87 30.16 C 296.914 30.1951 296.976 30.1951 297.02 30.16 L 297.29 29.94 C 297.345 29.8941 297.353 29.8122 297.307 29.7569 C 297.302 29.7508 297.296 29.7451 297.29 29.74 L 294.72 28 C 294.678 27.9606 294.612 27.9606 294.57 28 L 294.31 28.23 C 294.258 28.2705 294.248 28.3458 294.288 28.3983 C 294.295 28.4064 294.302 28.4137 294.31 28.42 Z" fill="#007869" transform="matrix(1,0,0,1,-60.99,-16.18)"/><path d=" M 293.85 33.27 C 293.891 33.3035 293.949 33.3035 293.99 33.27 L 294.21 33 C 294.262 32.9595 294.272 32.8842 294.232 32.8317 C 294.225 32.8236 294.218 32.8163 294.21 32.81 L 291.27 31.66 C 291.228 31.63 291.172 31.63 291.13 31.66 L 290.92 31.95 C 290.879 31.9947 290.882 32.0643 290.927 32.1054 C 290.939 32.1168 290.954 32.1253 290.97 32.13 Z" fill="#007869" transform="matrix(1,0,0,1,-60.99,-16.18)"/><path d=" M 288.29 36.49 L 291.44 36.93 C 291.493 36.9311 291.542 36.9045 291.57 36.86 L 291.74 36.55 C 291.774 36.4928 291.754 36.4193 291.697 36.3858 C 291.683 36.3773 291.667 36.3719 291.65 36.37 L 288.48 35.93 C 288.431 35.9162 288.379 35.9422 288.36 35.99 L 288.2 36.31 C 288.166 36.3672 288.186 36.4407 288.243 36.4742 C 288.257 36.4827 288.273 36.4881 288.29 36.49 Z" fill="#007869" transform="matrix(1,0,0,1,-60.99,-16.18)"/><path d=" M 286.57 41.27 L 289.78 40.96 C 289.829 40.9533 289.868 40.9176 289.88 40.87 L 290 40.52 C 290.017 40.4501 289.973 40.3801 289.904 40.3635 C 289.893 40.3609 289.881 40.3597 289.87 40.36 L 286.64 40.67 C 286.589 40.6755 286.546 40.7108 286.53 40.76 L 286.44 41.11 C 286.417 41.1722 286.449 41.2412 286.511 41.2639 C 286.53 41.2708 286.55 41.2729 286.57 41.27 Z" fill="#007869" transform="matrix(1,0,0,1,-60.99,-16.18)"/><path d=" M 289 45.09 C 289 44.96 289 44.84 289.05 44.71 C 289.06 44.6444 289.014 44.5835 288.949 44.5739 C 288.929 44.5711 288.909 44.5731 288.89 44.58 L 285.76 45.67 C 285.712 45.6876 285.678 45.7297 285.67 45.78 C 285.67 45.9 285.67 46.02 285.67 46.15 C 285.666 46.2162 285.717 46.2729 285.783 46.2767 C 285.799 46.2777 285.815 46.2754 285.83 46.27 L 288.94 45.19 C 288.977 45.1709 289.001 45.1321 289 45.09 Z" fill="#007869" transform="matrix(1,0,0,1,-60.99,-16.18)"/><path d=" M 288.93 49.36 L 288.93 48.97 C 288.926 48.9039 288.869 48.8535 288.803 48.8575 C 288.78 48.8589 288.758 48.8667 288.74 48.88 L 285.91 50.74 C 285.871 50.7672 285.848 50.8124 285.85 50.86 C 285.85 50.99 285.85 51.11 285.9 51.24 C 285.918 51.3094 285.989 51.351 286.059 51.3327 C 286.07 51.3299 286.08 51.3256 286.09 51.32 L 288.9 49.47 C 288.93 49.4418 288.941 49.3994 288.93 49.36 Z" fill="#007869" transform="matrix(1,0,0,1,-60.99,-16.18)"/><path d=" M 289.64 53.64 C 289.64 53.51 289.57 53.38 289.54 53.24 C 289.515 53.1727 289.44 53.1386 289.373 53.1637 C 289.357 53.1696 289.342 53.1785 289.33 53.19 L 287 55.73 C 286.976 55.7665 286.976 55.8135 287 55.85 L 287.12 56.22 C 287.152 56.278 287.225 56.299 287.283 56.2669 C 287.303 56.256 287.319 56.2397 287.33 56.22 L 289.61 53.71 C 289.628 53.691 289.639 53.6662 289.64 53.64 Z" fill="#007869" transform="matrix(1,0,0,1,-60.99,-16.18)"/><path d=" M 290.82 57.43 L 289.19 60.53 C 289.17 60.5676 289.17 60.6124 289.19 60.65 L 289.4 60.99 C 289.432 61.048 289.505 61.069 289.563 61.0369 C 289.583 61.026 289.599 61.0097 289.61 60.99 L 291.22 57.93 C 291.24 57.896 291.24 57.854 291.22 57.82 C 291.16 57.7 291.09 57.57 291.03 57.44 C 291.001 57.3805 290.929 57.3559 290.869 57.3851 C 290.849 57.3951 290.832 57.4106 290.82 57.43 Z" fill="#007869" transform="matrix(1,0,0,1,-60.99,-16.18)"/><path d=" M 293.11 60.91 C 293.074 60.8543 293 60.8381 292.944 60.874 C 292.914 60.8932 292.894 60.9247 292.89 60.96 L 292 64.55 C 291.985 64.5851 291.985 64.6249 292 64.66 L 292.28 64.97 C 292.312 65.028 292.385 65.049 292.443 65.0169 C 292.463 65.006 292.479 64.9897 292.49 64.97 L 293.35 61.42 C 293.366 61.3886 293.366 61.3514 293.35 61.32 Z" fill="#007869" transform="matrix(1,0,0,1,-60.99,-16.18)"/></g><g id="English_vector"><g id="MPI_OF_BIOPHYSICS_-_Vector"><path d=" M 180.66 69.86 C 180.677 70.6125 180.53 71.3598 180.23 72.05 C 179.967 72.6411 179.54 73.1443 179 73.5 C 178.443 73.8385 177.802 74.0119 177.15 74 C 176.172 74.0346 175.232 73.618 174.6 72.87 C 173.903 72.0108 173.547 70.925 173.6 69.82 L 173.6 68.89 C 173.584 68.1408 173.73 67.3969 174.03 66.71 C 174.296 66.1127 174.726 65.603 175.27 65.24 C 176.402 64.5591 177.818 64.5591 178.95 65.24 C 179.491 65.5815 179.919 66.0756 180.18 66.66 C 180.483 67.3253 180.637 68.0489 180.63 68.78 Z M 179.9 68.86 C 179.951 67.9505 179.69 67.0509 179.16 66.31 C 178.679 65.6992 177.937 65.3538 177.16 65.38 C 176.383 65.3505 175.638 65.6965 175.16 66.31 C 174.618 67.0605 174.353 67.9759 174.41 68.9 L 174.41 69.84 C 174.361 70.7461 174.622 71.6418 175.15 72.38 C 175.628 72.9946 176.372 73.3438 177.15 73.32 C 177.928 73.3528 178.674 73.0061 179.15 72.39 C 179.683 71.6396 179.941 70.7284 179.88 69.81 Z" fill="#007869" transform="matrix(1,0,0,1,-60.99,-16.18)"/><path d=" M 188.18 69.66 L 184 69.66 L 184 73.88 L 183.23 73.88 L 183.23 64.88 L 188.82 64.88 L 188.82 65.52 L 184 65.52 L 184 69 L 188.2 69 Z" fill="#007869" transform="matrix(1,0,0,1,-60.99,-16.18)"/><path d=" M 194.71 73.88 L 194.71 64.88 L 197.37 64.88 C 198.15 64.8249 198.926 65.0364 199.57 65.48 C 200.087 65.9131 200.366 66.5672 200.32 67.24 C 200.33 67.6773 200.197 68.1058 199.94 68.46 C 199.689 68.802 199.34 69.06 198.94 69.2 C 199.438 69.2982 199.885 69.5713 200.2 69.97 C 200.517 70.3633 200.687 70.8549 200.68 71.36 C 200.721 72.068 200.438 72.7563 199.91 73.23 C 199.3 73.7106 198.535 73.9492 197.76 73.9 Z M 195.47 68.88 L 197.55 68.88 C 198.08 68.9045 198.603 68.7456 199.03 68.43 C 199.391 68.1187 199.584 67.6554 199.55 67.18 C 199.589 66.6881 199.387 66.2078 199.01 65.89 C 198.52 65.5833 197.946 65.4397 197.37 65.48 L 195.47 65.48 Z M 195.47 69.53 L 195.47 73.22 L 197.76 73.22 C 198.32 73.2489 198.872 73.071 199.31 72.72 C 199.698 72.369 199.907 71.8623 199.88 71.34 C 199.904 70.8369 199.702 70.3492 199.33 70.01 C 198.903 69.6689 198.365 69.4979 197.82 69.53 Z" fill="#007869" transform="matrix(1,0,0,1,-60.99,-16.18)"/><path d=" M 204.05 73.88 L 203.29 73.88 L 203.29 64.88 L 204.05 64.88 Z" fill="#007869" transform="matrix(1,0,0,1,-60.99,-16.18)"/><path d=" M 213.8 69.86 C 213.812 70.6121 213.666 71.3583 213.37 72.05 C 213.107 72.6411 212.68 73.1443 212.14 73.5 C 211.583 73.8375 210.941 74.0108 210.29 74 C 209.312 74.0346 208.372 73.618 207.74 72.87 C 207.044 72.0104 206.688 70.9249 206.74 69.82 L 206.74 68.89 C 206.727 68.14 206.877 67.3961 207.18 66.71 C 207.443 66.1109 207.874 65.6005 208.42 65.24 C 209.549 64.5608 210.961 64.5608 212.09 65.24 C 212.637 65.5776 213.069 66.0725 213.33 66.66 C 213.624 67.3284 213.777 68.05 213.78 68.78 Z M 213.03 68.86 C 213.084 67.9517 212.826 67.0522 212.3 66.31 C 211.34 65.2054 209.666 65.0884 208.561 66.0485 C 208.468 66.1295 208.381 66.2169 208.3 66.31 C 207.767 67.0643 207.506 67.9777 207.56 68.9 L 207.56 69.84 C 207.507 70.7466 207.768 71.6439 208.3 72.38 C 209.26 73.4846 210.934 73.6016 212.039 72.6415 C 212.132 72.5605 212.219 72.4731 212.3 72.38 C 212.824 71.6255 213.077 70.7165 213.02 69.8 Z" fill="#007869" transform="matrix(1,0,0,1,-60.99,-16.18)"/><path d=" M 217.11 70.2 L 217.11 73.88 L 216.35 73.88 L 216.35 64.88 L 219.43 64.88 C 220.233 64.8378 221.024 65.0943 221.65 65.6 C 222.708 66.6964 222.708 68.4336 221.65 69.53 C 221.006 70.0352 220.196 70.2813 219.38 70.22 Z M 217.11 69.56 L 219.43 69.56 C 220.04 69.5993 220.642 69.4104 221.12 69.03 C 221.518 68.6475 221.729 68.111 221.7 67.56 C 221.722 67.0043 221.512 66.4644 221.12 66.07 C 220.664 65.6743 220.073 65.4701 219.47 65.5 L 217.11 65.5 Z" fill="#007869" transform="matrix(1,0,0,1,-60.99,-16.18)"/><path d=" M 231.49 73.88 L 230.72 73.88 L 230.72 69.55 L 225.56 69.55 L 225.56 73.88 L 224.8 73.88 L 224.8 64.88 L 225.56 64.88 L 225.56 68.88 L 230.72 68.88 L 230.72 64.88 L 231.49 64.88 Z" fill="#007869" transform="matrix(1,0,0,1,-60.99,-16.18)"/><path d=" M 236.89 69.78 L 239.64 64.86 L 240.52 64.86 L 237.26 70.48 L 237.26 73.88 L 236.5 73.88 L 236.5 70.48 L 233.25 64.86 L 234.15 64.86 Z" fill="#007869" transform="matrix(1,0,0,1,-60.99,-16.18)"/><path d=" M 247.48 71.66 C 247.497 71.2027 247.301 70.7634 246.95 70.47 C 246.364 70.0759 245.709 69.7945 245.02 69.64 C 244.312 69.467 243.636 69.18 243.02 68.79 C 242.065 68.1422 241.815 66.8426 242.463 65.8872 C 242.596 65.6919 242.76 65.5204 242.95 65.38 C 243.585 64.9287 244.352 64.7002 245.13 64.73 C 245.686 64.7217 246.237 64.8415 246.74 65.08 C 247.196 65.2992 247.578 65.6467 247.84 66.08 C 248.101 66.4925 248.236 66.9719 248.23 67.46 L 247.46 67.46 C 247.481 66.8945 247.25 66.3488 246.83 65.97 C 246.352 65.5791 245.746 65.3795 245.13 65.41 C 244.544 65.378 243.965 65.5396 243.48 65.87 C 243.088 66.1465 242.859 66.6002 242.87 67.08 C 242.859 67.5207 243.065 67.9389 243.42 68.2 C 243.956 68.5666 244.557 68.8279 245.19 68.97 C 245.829 69.1249 246.447 69.3566 247.03 69.66 C 247.411 69.8586 247.734 70.1512 247.97 70.51 C 248.187 70.861 248.298 71.2673 248.29 71.68 C 248.312 72.3591 247.989 73.0031 247.43 73.39 C 246.775 73.8464 245.987 74.0716 245.19 74.03 C 244.589 74.039 243.994 73.9232 243.44 73.69 C 242.943 73.4893 242.521 73.14 242.23 72.69 C 241.951 72.2735 241.808 71.781 241.82 71.28 L 242.58 71.28 C 242.558 71.8686 242.823 72.4312 243.29 72.79 C 243.843 73.1829 244.513 73.3767 245.19 73.34 C 245.789 73.367 246.381 73.2023 246.88 72.87 C 247.268 72.5913 247.493 72.1379 247.48 71.66 Z" fill="#007869" transform="matrix(1,0,0,1,-60.99,-16.18)"/><path d=" M 251.45 73.88 L 250.69 73.88 L 250.69 64.88 L 251.45 64.88 Z" fill="#007869" transform="matrix(1,0,0,1,-60.99,-16.18)"/><path d=" M 260.92 71.07 C 260.881 71.8986 260.522 72.6798 259.92 73.25 C 259.273 73.776 258.453 74.0433 257.62 74 C 256.99 74.0145 256.37 73.8404 255.84 73.5 C 255.315 73.1509 254.902 72.6579 254.65 72.08 C 254.361 71.418 254.214 70.7024 254.22 69.98 L 254.22 68.8 C 254.21 68.0674 254.356 67.3412 254.65 66.67 C 254.903 66.084 255.324 65.5862 255.86 65.24 C 257.278 64.1948 259.275 64.4971 260.32 65.9154 C 260.699 66.4285 260.914 67.0431 260.94 67.68 L 260.17 67.68 C 260.18 66.4153 259.164 65.3817 257.899 65.3713 C 257.826 65.3707 257.753 65.3736 257.68 65.38 C 256.902 65.3379 256.154 65.6821 255.68 66.3 C 255.158 67.0368 254.901 67.9285 254.95 68.83 L 254.95 69.94 C 254.904 70.8258 255.154 71.7017 255.66 72.43 C 256.108 73.0374 256.826 73.3853 257.58 73.36 C 258.231 73.4094 258.876 73.2052 259.38 72.79 C 259.826 72.3238 260.092 71.7141 260.13 71.07 Z" fill="#007869" transform="matrix(1,0,0,1,-60.99,-16.18)"/><path d=" M 268.52 71.66 C 268.537 71.2027 268.341 70.7634 267.99 70.47 C 267.403 70.078 266.749 69.7967 266.06 69.64 C 265.352 69.467 264.676 69.18 264.06 68.79 C 263.473 68.4133 263.124 67.7577 263.14 67.06 C 263.126 66.3933 263.444 65.7633 263.99 65.38 C 264.625 64.9287 265.392 64.7002 266.17 64.73 C 266.726 64.7228 267.277 64.8425 267.78 65.08 C 268.236 65.2992 268.618 65.6467 268.88 66.08 C 269.141 66.4925 269.276 66.9719 269.27 67.46 L 268.5 67.46 C 268.521 66.8945 268.29 66.3488 267.87 65.97 C 267.392 65.5791 266.786 65.3795 266.17 65.41 C 265.584 65.378 265.005 65.5396 264.52 65.87 C 264.128 66.1465 263.899 66.6002 263.91 67.08 C 263.899 67.5207 264.105 67.9389 264.46 68.2 C 264.996 68.5666 265.596 68.8279 266.23 68.97 C 266.868 69.1267 267.486 69.3583 268.07 69.66 C 268.449 69.8615 268.772 70.1535 269.01 70.51 C 269.224 70.8618 269.332 71.2682 269.32 71.68 C 269.345 72.3572 269.025 73.0008 268.47 73.39 C 267.814 73.8436 267.027 74.0686 266.23 74.03 C 265.629 74.039 265.034 73.9232 264.48 73.69 C 263.982 73.4922 263.558 73.1423 263.27 72.69 C 262.988 72.2744 262.842 71.782 262.85 71.28 L 263.62 71.28 C 263.593 71.8696 263.859 72.4345 264.33 72.79 C 264.883 73.1829 265.553 73.3767 266.23 73.34 C 266.829 73.367 267.421 73.2023 267.92 72.87 C 268.304 72.5879 268.528 72.1368 268.52 71.66 Z" fill="#007869" transform="matrix(1,0,0,1,-60.99,-16.18)"/><path d=" M 6.21 41.64 L 6.16 41.64 L 3.13 32.86 L 0 32.86 L 0 44.77 L 2.39 44.77 L 2.39 36.63 L 2.44 36.62 L 5.38 44.77 L 7 44.77 L 9.94 36.63 L 9.99 36.64 L 9.99 44.77 L 12.38 44.77 L 12.38 32.86 L 9.27 32.86 L 6.21 41.64 Z" fill="#007869"/><path d=" M 82.56 49 L 80.12 49 L 76.1 61 L 78.6 61 L 79.4 58.43 L 83.26 58.43 L 84.07 61 L 86.56 61 Z M 80 56.51 L 81.32 52.31 L 81.32 52.31 L 82.64 56.51 Z" fill="#007869" transform="matrix(1,0,0,1,-60.99,-16.18)"/><path d=" M 37.31 44.77 L 33.58 38.77 L 37.11 32.86 L 34.33 32.86 L 32.1 37.08 L 29.9 32.86 L 27.13 32.86 L 30.66 38.77 L 27.04 44.77 L 29.83 44.77 L 32.13 40.48 L 34.43 44.77 L 37.31 44.77 Z" fill="#007869"/><path d=" M 113.74 50.09 C 112.838 49.3344 111.685 48.9453 110.51 49 L 106 49 L 106 61 L 108.39 61 L 108.39 56.63 L 110.56 56.63 C 111.723 56.706 112.873 56.3499 113.79 55.63 C 115.309 54.1657 115.353 51.7474 113.889 50.2286 C 113.856 50.1951 113.823 50.1623 113.79 50.13 Z M 112 54.24 C 111.596 54.6264 111.048 54.8258 110.49 54.79 L 108.32 54.79 L 108.32 50.88 L 110.49 50.88 C 111.05 50.8468 111.597 51.05 112 51.44 C 112.352 51.827 112.539 52.3369 112.52 52.86 C 112.535 53.3705 112.348 53.8664 112 54.24 Z" fill="#007869" transform="matrix(1,0,0,1,-60.99,-16.18)"/><path d=" M 63.23 42.94 L 58.86 42.94 L 58.86 32.86 L 56.47 32.86 L 56.47 44.77 L 63.23 44.77 L 63.23 42.94 Z" fill="#007869"/><path d=" M 129.74 49 L 125.74 60.91 L 128.24 60.91 L 129.04 58.34 L 132.9 58.34 L 133.71 60.91 L 136.2 60.91 L 132.2 49 Z M 129.61 56.47 L 130.93 52.27 L 130.93 52.27 L 132.25 56.47 Z" fill="#007869" transform="matrix(1,0,0,1,-60.99,-16.18)"/><path d=" M 80.07 36.75 L 80.11 36.74 L 84.92 44.77 L 87.3 44.77 L 87.3 32.86 L 84.92 32.86 L 84.92 40.88 L 84.87 40.89 L 80.07 32.86 L 77.68 32.86 L 77.68 44.77 L 80.07 44.77 L 80.07 36.75 Z" fill="#007869"/><path d=" M 159.61 49.93 C 158.645 49.1713 157.435 48.7941 156.21 48.87 C 154.94 48.8217 153.711 49.3249 152.84 50.25 C 151.969 51.2265 151.51 52.5025 151.56 53.81 L 151.56 56.18 C 151.512 57.4927 151.983 58.7715 152.87 59.74 C 153.776 60.6694 155.033 61.171 156.33 61.12 C 157.527 61.1904 158.706 60.8044 159.63 60.04 C 160.45 59.2667 160.877 58.1639 160.79 57.04 L 160.79 57.04 L 158.48 57.04 C 158.529 57.6629 158.339 58.2811 157.95 58.77 C 157.519 59.1732 156.938 59.3764 156.35 59.33 C 155.654 59.3581 154.991 59.0303 154.59 58.46 C 154.147 57.7996 153.926 57.0147 153.96 56.22 L 153.96 53.8 C 153.926 53.0127 154.136 52.2342 154.56 51.57 C 154.928 51.0105 155.561 50.6842 156.23 50.71 C 156.853 50.6555 157.47 50.8578 157.94 51.27 C 158.339 51.7427 158.537 52.3531 158.49 52.97 L 160.81 52.97 L 160.81 52.97 C 160.908 51.8247 160.464 50.6995 159.61 49.93 Z" fill="#007869" transform="matrix(1,0,0,1,-60.99,-16.18)"/><path d=" M 112.3 32.86 L 109.34 32.86 L 106.08 37.73 L 105.41 37.73 L 105.41 32.86 L 103.02 32.86 L 103.02 44.77 L 105.41 44.77 L 105.41 39.8 L 106.29 39.8 L 109.57 44.77 L 112.61 44.77 L 108.17 38.4 L 112.3 32.86 Z" fill="#007869"/><path d=" M 183.55 61 L 181.1 61 L 181.1 49.09 L 183.55 49.09 Z" fill="#007869" transform="matrix(1,0,0,1,-60.99,-16.18)"/><path d=" M 196.73 61 L 194.28 61 L 189.52 53.18 L 189.52 61 L 187.07 61 L 187.07 49.09 L 189.52 49.09 L 194.29 56.92 L 194.29 49.09 L 196.73 49.09 Z" fill="#007869" transform="matrix(1,0,0,1,-60.99,-16.18)"/><path d=" M 206.19 57.85 C 206.215 57.4367 206.031 57.0383 205.7 56.79 C 205.157 56.4384 204.564 56.172 203.94 56 C 203.249 55.7933 202.58 55.5221 201.94 55.19 C 200.757 54.6837 199.977 53.5361 199.94 52.25 C 199.928 51.6317 200.122 51.0269 200.49 50.53 C 200.876 50.0057 201.398 49.5975 202 49.35 C 202.725 49.0616 203.5 48.9189 204.28 48.93 C 205.061 48.9138 205.837 49.0709 206.55 49.39 C 207.182 49.6638 207.72 50.1155 208.1 50.69 C 208.467 51.2589 208.658 51.9232 208.65 52.6 L 206.2 52.6 C 206.229 52.1217 206.042 51.6556 205.69 51.33 C 205.277 51.0087 204.762 50.8487 204.24 50.88 C 203.749 50.8494 203.261 50.9792 202.85 51.25 C 202.531 51.4828 202.345 51.8554 202.35 52.25 C 202.352 52.6628 202.573 53.0436 202.93 53.25 C 203.467 53.5709 204.046 53.8165 204.65 53.98 C 205.757 54.2612 206.784 54.7951 207.65 55.54 C 208.296 56.1332 208.66 56.973 208.65 57.85 C 208.689 58.8015 208.25 59.7095 207.48 60.27 C 206.559 60.9011 205.455 61.2105 204.34 61.15 C 203.481 61.1583 202.63 60.9881 201.84 60.65 C 201.15 60.3634 200.556 59.8844 200.13 59.27 C 199.732 58.6799 199.526 57.9815 199.54 57.27 L 202 57.27 C 202 58.58 202.79 59.27 204.35 59.27 C 204.83 59.2992 205.307 59.1729 205.71 58.91 C 206.052 58.6711 206.236 58.2645 206.19 57.85 Z" fill="#007869" transform="matrix(1,0,0,1,-60.99,-16.18)"/><path d=" M 219.91 51.07 L 216.28 51.07 L 216.28 61 L 213.83 61 L 213.83 51.1 L 210.24 51.1 L 210.24 49.1 L 219.91 49.1 Z" fill="#007869" transform="matrix(1,0,0,1,-60.99,-16.18)"/><path d=" M 224.75 61 L 222.3 61 L 222.3 49.09 L 224.75 49.09 Z" fill="#007869" transform="matrix(1,0,0,1,-60.99,-16.18)"/><path d=" M 236.55 51.07 L 232.92 51.07 L 232.92 61 L 230.47 61 L 230.47 51.1 L 226.88 51.1 L 226.88 49.1 L 236.55 49.1 Z" fill="#007869" transform="matrix(1,0,0,1,-60.99,-16.18)"/><path d=" M 247.77 49.09 L 247.77 56.91 C 247.831 58.0682 247.385 59.1956 246.55 60 C 244.589 61.4851 241.881 61.4851 239.92 60 C 239.091 59.2264 238.636 58.1333 238.67 57 L 238.67 49.09 L 241.12 49.09 L 241.12 56.93 C 241.061 57.55 241.264 58.1664 241.68 58.63 C 242.102 59.0056 242.656 59.1966 243.22 59.16 C 244.6 59.16 245.3 58.44 245.32 56.99 L 245.32 49.09 Z" fill="#007869" transform="matrix(1,0,0,1,-60.99,-16.18)"/><path d=" M 259.56 51.07 L 255.92 51.07 L 255.92 61 L 253.47 61 L 253.47 51.1 L 249.88 51.1 L 249.88 49.1 L 259.56 49.1 Z" fill="#007869" transform="matrix(1,0,0,1,-60.99,-16.18)"/><path d=" M 268.93 55.82 L 264.24 55.82 L 264.24 59 L 269.75 59 L 269.75 61 L 261.75 61 L 261.75 49.09 L 269.69 49.09 L 269.69 51.09 L 264.2 51.09 L 264.2 53.9 L 268.89 53.9 Z" fill="#007869" transform="matrix(1,0,0,1,-60.99,-16.18)"/></g></g></svg>